# xmcd
#
# Track frame offsets: 
#        150
#        21025
#        36105
#        69395
#        79515
#        105490
#        135325
#        154325
#        173895
#        206895
#        228950
#
# Disc length: 3452 seconds
#
# Revision: 0
# Processed by: cddbd v1.5.1PL0 Copyright (c) Steve Scherf et al.
# Submitted via: ExactAudioCopy v0.95a5
#
DISCID=840d7a0b
DTITLE=Dr JJ's Blues Band - Live
DYEAR=2000
DGENRE=British Pub Blues
TTITLE0=Let The Good Times Roll
TTITLE1=Watch Yourself
TTITLE2=Standign Around Cryin'
TTITLE3=Dave's Shuffle
TTITLE4=Blues Had A Baby
TTITLE5=Leave My Girl Alone
TTITLE6=Why I Sing The Blues
TTITLE7=Who's Been Talking¿
TTITLE8=Stormy Monday
TTITLE9=Blues In My Pocket
TTITLE10=Since I Met You Baby
EXTD=Recorded live at The Farnham Maltings, Surrey \nJanuary 22nd and Ma
EXTD=rch 30th 2000\n\nSpecial guests Tommy Allen and Delta McCloud\n\n\n
EXTT0=
EXTT1=
EXTT2=
EXTT3=
EXTT4=
EXTT5=
EXTT6=
EXTT7=
EXTT8=
EXTT9=
EXTT10=
PLAYORDER=
